<svg xmlns="http://www.w3.org/2000/svg" width="231.52" height="216.94" viewBox="0 0 231.52 216.94">
  <title>Asset 1</title>
  <g id="Layer_2" data-name="Layer 2">
    <g id="Layer_1-2" data-name="Layer 1">
      <path d="M5.35,2.67A2.68,2.68,0,1,0,2.67,5.35,2.68,2.68,0,0,0,5.35,2.67" style="fill: #4cbf7a"/>
      <path d="M13.85,2.67a2.68,2.68,0,1,0-2.67,2.68,2.68,2.68,0,0,0,2.67-2.68" style="fill: #4cbf7a"/>
      <path d="M22.35,2.67a2.67,2.67,0,1,0-2.67,2.68,2.67,2.67,0,0,0,2.67-2.68" style="fill: #4cbf7a"/>
      <path d="M30.86,2.67a2.68,2.68,0,1,0-2.67,2.68,2.68,2.68,0,0,0,2.67-2.68" style="fill: #4cbf7a"/>
      <path d="M39.36,2.67a2.67,2.67,0,1,0-2.67,2.68,2.68,2.68,0,0,0,2.67-2.68" style="fill: #4cbf7a"/>
      <path d="M47.87,2.67a2.68,2.68,0,1,0-2.68,2.68,2.68,2.68,0,0,0,2.68-2.68" style="fill: #4cbf7a"/>
      <path d="M56.37,2.67A2.68,2.68,0,1,0,53.7,5.35a2.68,2.68,0,0,0,2.67-2.68" style="fill: #4cbf7a"/>
      <path d="M64.87,2.67A2.67,2.67,0,1,0,62.2,5.35a2.67,2.67,0,0,0,2.67-2.68" style="fill: #4cbf7a"/>
      <path d="M73.38,2.67a2.68,2.68,0,1,0-2.67,2.68,2.68,2.68,0,0,0,2.67-2.68" style="fill: #4cbf7a"/>
      <path d="M5.35,11.18a2.68,2.68,0,1,0-2.68,2.67,2.68,2.68,0,0,0,2.68-2.67" style="fill: #4cbf7a"/>
      <path d="M13.85,11.18a2.68,2.68,0,1,0-2.67,2.67,2.68,2.68,0,0,0,2.67-2.67" style="fill: #4cbf7a"/>
      <path d="M22.35,11.18a2.67,2.67,0,1,0-2.67,2.67,2.67,2.67,0,0,0,2.67-2.67" style="fill: #4cbf7a"/>
      <path d="M30.86,11.18a2.68,2.68,0,1,0-2.67,2.67,2.68,2.68,0,0,0,2.67-2.67" style="fill: #4cbf7a"/>
      <path d="M39.36,11.18a2.67,2.67,0,1,0-2.67,2.67,2.68,2.68,0,0,0,2.67-2.67" style="fill: #4cbf7a"/>
      <path d="M47.87,11.18a2.68,2.68,0,1,0-2.68,2.67,2.68,2.68,0,0,0,2.68-2.67" style="fill: #4cbf7a"/>
      <path d="M56.37,11.18a2.68,2.68,0,1,0-2.67,2.67,2.68,2.68,0,0,0,2.67-2.67" style="fill: #4cbf7a"/>
      <path d="M64.87,11.18a2.67,2.67,0,1,0-2.67,2.67,2.67,2.67,0,0,0,2.67-2.67" style="fill: #4cbf7a"/>
      <path d="M73.38,11.18a2.68,2.68,0,1,0-2.67,2.67,2.68,2.68,0,0,0,2.67-2.67" style="fill: #4cbf7a"/>
      <path d="M5.35,19.68a2.68,2.68,0,1,0-2.68,2.67,2.67,2.67,0,0,0,2.68-2.67" style="fill: #4cbf7a"/>
      <path d="M13.85,19.68a2.68,2.68,0,1,0-2.67,2.67,2.67,2.67,0,0,0,2.67-2.67" style="fill: #4cbf7a"/>
      <path d="M22.35,19.68a2.67,2.67,0,1,0-2.67,2.67,2.66,2.66,0,0,0,2.67-2.67" style="fill: #4cbf7a"/>
      <path d="M30.86,19.68a2.68,2.68,0,1,0-2.67,2.67,2.67,2.67,0,0,0,2.67-2.67" style="fill: #4cbf7a"/>
      <path d="M39.36,19.68a2.67,2.67,0,1,0-2.67,2.67,2.67,2.67,0,0,0,2.67-2.67" style="fill: #4cbf7a"/>
      <path d="M47.87,19.68a2.68,2.68,0,1,0-2.68,2.67,2.67,2.67,0,0,0,2.68-2.67" style="fill: #4cbf7a"/>
      <path d="M56.37,19.68a2.68,2.68,0,1,0-2.67,2.67,2.67,2.67,0,0,0,2.67-2.67" style="fill: #4cbf7a"/>
      <path d="M64.87,19.68a2.67,2.67,0,1,0-2.67,2.67,2.66,2.66,0,0,0,2.67-2.67" style="fill: #4cbf7a"/>
      <path d="M73.38,19.68a2.68,2.68,0,1,0-2.67,2.67,2.67,2.67,0,0,0,2.67-2.67" style="fill: #4cbf7a"/>
      <path d="M163.49,78.72a2.68,2.68,0,1,0-2.67,2.67,2.67,2.67,0,0,0,2.67-2.67" style="fill: #4cbf7a"/>
      <path d="M172,78.72a2.67,2.67,0,1,0-2.67,2.67A2.66,2.66,0,0,0,172,78.72" style="fill: #4cbf7a"/>
      <path d="M180.5,78.72a2.68,2.68,0,1,0-2.68,2.67,2.67,2.67,0,0,0,2.68-2.67" style="fill: #4cbf7a"/>
      <path d="M189,78.72a2.68,2.68,0,1,0-2.67,2.67A2.67,2.67,0,0,0,189,78.72" style="fill: #4cbf7a"/>
      <path d="M197.5,78.72a2.67,2.67,0,1,0-2.67,2.67,2.66,2.66,0,0,0,2.67-2.67" style="fill: #4cbf7a"/>
      <path d="M206,78.72a2.68,2.68,0,1,0-2.67,2.67A2.67,2.67,0,0,0,206,78.72" style="fill: #4cbf7a"/>
      <path d="M214.51,78.72a2.67,2.67,0,1,0-2.67,2.67,2.66,2.66,0,0,0,2.67-2.67" style="fill: #4cbf7a"/>
      <path d="M223,78.72a2.68,2.68,0,1,0-2.68,2.67A2.67,2.67,0,0,0,223,78.72" style="fill: #4cbf7a"/>
      <path d="M231.52,78.72a2.68,2.68,0,1,0-2.67,2.67,2.67,2.67,0,0,0,2.67-2.67" style="fill: #4cbf7a"/>
      <path d="M163.49,87.22a2.68,2.68,0,1,0-2.67,2.68,2.68,2.68,0,0,0,2.67-2.68" style="fill: #4cbf7a"/>
      <path d="M172,87.22a2.67,2.67,0,1,0-2.67,2.68A2.67,2.67,0,0,0,172,87.22" style="fill: #4cbf7a"/>
      <path d="M180.5,87.22a2.68,2.68,0,1,0-2.68,2.68,2.68,2.68,0,0,0,2.68-2.68" style="fill: #4cbf7a"/>
      <path d="M189,87.22a2.68,2.68,0,1,0-2.67,2.68A2.68,2.68,0,0,0,189,87.22" style="fill: #4cbf7a"/>
      <path d="M197.5,87.22a2.67,2.67,0,1,0-2.67,2.68,2.67,2.67,0,0,0,2.67-2.68" style="fill: #4cbf7a"/>
      <path d="M206,87.22a2.68,2.68,0,1,0-2.67,2.68A2.68,2.68,0,0,0,206,87.22" style="fill: #4cbf7a"/>
      <path d="M214.51,87.22a2.67,2.67,0,1,0-2.67,2.68,2.67,2.67,0,0,0,2.67-2.68" style="fill: #4cbf7a"/>
      <path d="M223,87.22a2.68,2.68,0,1,0-2.68,2.68A2.68,2.68,0,0,0,223,87.22" style="fill: #4cbf7a"/>
      <path d="M231.52,87.22a2.68,2.68,0,1,0-2.67,2.68,2.68,2.68,0,0,0,2.67-2.68" style="fill: #4cbf7a"/>
      <path d="M163.49,95.73a2.68,2.68,0,1,0-2.67,2.67,2.68,2.68,0,0,0,2.67-2.67" style="fill: #4cbf7a"/>
      <path d="M172,95.73a2.67,2.67,0,1,0-2.67,2.67A2.67,2.67,0,0,0,172,95.73" style="fill: #4cbf7a"/>
      <path d="M180.5,95.73a2.68,2.68,0,1,0-2.68,2.67,2.68,2.68,0,0,0,2.68-2.67" style="fill: #4cbf7a"/>
      <path d="M189,95.73a2.68,2.68,0,1,0-2.67,2.67A2.68,2.68,0,0,0,189,95.73" style="fill: #4cbf7a"/>
      <path d="M197.5,95.73a2.67,2.67,0,1,0-2.67,2.67,2.67,2.67,0,0,0,2.67-2.67" style="fill: #4cbf7a"/>
      <path d="M206,95.73a2.68,2.68,0,1,0-2.67,2.67A2.68,2.68,0,0,0,206,95.73" style="fill: #4cbf7a"/>
      <path d="M214.51,95.73a2.67,2.67,0,1,0-2.67,2.67,2.67,2.67,0,0,0,2.67-2.67" style="fill: #4cbf7a"/>
      <path d="M223,95.73a2.68,2.68,0,1,0-2.68,2.67A2.68,2.68,0,0,0,223,95.73" style="fill: #4cbf7a"/>
      <path d="M231.52,95.73a2.68,2.68,0,1,0-2.67,2.67,2.68,2.68,0,0,0,2.67-2.67" style="fill: #4cbf7a"/>
      <path d="M110.7,36.69a2.51,2.51,0,1,0-2.51,2.51,2.51,2.51,0,0,0,2.51-2.51" style="fill: #4cbf7a"/>
      <path d="M119.37,36.69a2.68,2.68,0,1,0-2.68,2.67,2.67,2.67,0,0,0,2.68-2.67" style="fill: #4cbf7a"/>
      <path d="M127.87,36.69a2.68,2.68,0,1,0-2.67,2.67,2.67,2.67,0,0,0,2.67-2.67" style="fill: #4cbf7a"/>
      <path d="M110.7,45.19a2.51,2.51,0,1,0-2.51,2.52,2.51,2.51,0,0,0,2.51-2.52" style="fill: #4cbf7a"/>
      <path d="M119.37,45.19a2.68,2.68,0,1,0-2.68,2.68,2.68,2.68,0,0,0,2.68-2.68" style="fill: #4cbf7a"/>
      <path d="M127.87,45.19a2.68,2.68,0,1,0-2.67,2.68,2.68,2.68,0,0,0,2.67-2.68" style="fill: #4cbf7a"/>
      <path d="M22.35,53.7a2.67,2.67,0,1,0-2.67,2.67,2.67,2.67,0,0,0,2.67-2.67" style="fill: #4cbf7a"/>
      <path d="M30.86,53.7a2.68,2.68,0,1,0-2.67,2.67,2.68,2.68,0,0,0,2.67-2.67" style="fill: #4cbf7a"/>
      <path d="M39.36,53.7a2.67,2.67,0,1,0-2.67,2.67,2.68,2.68,0,0,0,2.67-2.67" style="fill: #4cbf7a"/>
      <path d="M47.87,53.7a2.68,2.68,0,1,0-2.68,2.67,2.68,2.68,0,0,0,2.68-2.67" style="fill: #4cbf7a"/>
      <path d="M56.37,53.7a2.68,2.68,0,1,0-2.67,2.67,2.68,2.68,0,0,0,2.67-2.67" style="fill: #4cbf7a"/>
      <path d="M110.7,53.7a2.51,2.51,0,1,0-2.51,2.51,2.51,2.51,0,0,0,2.51-2.51" style="fill: #4cbf7a"/>
      <path d="M119.37,53.7a2.68,2.68,0,1,0-2.68,2.67,2.68,2.68,0,0,0,2.68-2.67" style="fill: #4cbf7a"/>
      <path d="M127.87,53.7a2.68,2.68,0,1,0-2.67,2.67,2.68,2.68,0,0,0,2.67-2.67" style="fill: #4cbf7a"/>
      <path d="M13.85,62.2a2.68,2.68,0,1,0-2.67,2.67,2.67,2.67,0,0,0,2.67-2.67" style="fill: #4cbf7a"/>
      <path d="M22.35,62.2a2.67,2.67,0,1,0-2.67,2.67,2.66,2.66,0,0,0,2.67-2.67" style="fill: #4cbf7a"/>
      <path d="M30.86,62.2a2.68,2.68,0,1,0-2.67,2.67,2.67,2.67,0,0,0,2.67-2.67" style="fill: #4cbf7a"/>
      <path d="M39.36,62.2a2.67,2.67,0,1,0-2.67,2.67,2.67,2.67,0,0,0,2.67-2.67" style="fill: #4cbf7a"/>
      <path d="M47.87,62.2a2.68,2.68,0,1,0-2.68,2.67,2.67,2.67,0,0,0,2.68-2.67" style="fill: #4cbf7a"/>
      <path d="M56.37,62.2a2.68,2.68,0,1,0-2.67,2.67,2.67,2.67,0,0,0,2.67-2.67" style="fill: #4cbf7a"/>
      <path d="M64.87,62.2a2.67,2.67,0,1,0-2.67,2.67,2.66,2.66,0,0,0,2.67-2.67" style="fill: #4cbf7a"/>
      <path d="M110.7,62.2a2.51,2.51,0,1,0-2.51,2.51,2.51,2.51,0,0,0,2.51-2.51" style="fill: #4cbf7a"/>
      <path d="M119.37,62.2a2.68,2.68,0,1,0-2.68,2.67,2.67,2.67,0,0,0,2.68-2.67" style="fill: #4cbf7a"/>
      <path d="M127.87,62.2a2.68,2.68,0,1,0-2.67,2.67,2.67,2.67,0,0,0,2.67-2.67" style="fill: #4cbf7a"/>
      <path d="M5.35,70.71a2.68,2.68,0,1,0-2.68,2.67,2.68,2.68,0,0,0,2.68-2.67" style="fill: #4cbf7a"/>
      <path d="M13.85,70.71a2.68,2.68,0,1,0-2.67,2.67,2.68,2.68,0,0,0,2.67-2.67" style="fill: #4cbf7a"/>
      <path d="M22.35,70.71a2.67,2.67,0,1,0-2.67,2.67,2.67,2.67,0,0,0,2.67-2.67" style="fill: #4cbf7a"/>
      <path d="M30.86,70.71a2.68,2.68,0,1,0-2.67,2.67,2.68,2.68,0,0,0,2.67-2.67" style="fill: #4cbf7a"/>
      <path d="M39.36,70.71a2.67,2.67,0,1,0-2.67,2.67,2.68,2.68,0,0,0,2.67-2.67" style="fill: #4cbf7a"/>
      <path d="M47.87,70.71a2.68,2.68,0,1,0-2.68,2.67,2.68,2.68,0,0,0,2.68-2.67" style="fill: #4cbf7a"/>
      <path d="M56.37,70.71a2.68,2.68,0,1,0-2.67,2.67,2.68,2.68,0,0,0,2.67-2.67" style="fill: #4cbf7a"/>
      <path d="M64.87,70.71a2.67,2.67,0,1,0-2.67,2.67,2.67,2.67,0,0,0,2.67-2.67" style="fill: #4cbf7a"/>
      <path d="M73.38,70.71a2.68,2.68,0,1,0-2.67,2.67,2.68,2.68,0,0,0,2.67-2.67" style="fill: #4cbf7a"/>
      <path d="M110.7,70.71a2.51,2.51,0,1,0-2.51,2.51,2.51,2.51,0,0,0,2.51-2.51" style="fill: #4cbf7a"/>
      <path d="M119.37,70.71a2.68,2.68,0,1,0-2.68,2.67,2.68,2.68,0,0,0,2.68-2.67" style="fill: #4cbf7a"/>
      <path d="M127.87,70.71a2.68,2.68,0,1,0-2.67,2.67,2.68,2.68,0,0,0,2.67-2.67" style="fill: #4cbf7a"/>
      <path d="M5.35,79.21a2.68,2.68,0,1,0-2.68,2.67,2.67,2.67,0,0,0,2.68-2.67" style="fill: #4cbf7a"/>
      <path d="M13.85,79.21a2.68,2.68,0,1,0-2.67,2.67,2.67,2.67,0,0,0,2.67-2.67" style="fill: #4cbf7a"/>
      <path d="M22.35,79.21a2.67,2.67,0,1,0-2.67,2.67,2.66,2.66,0,0,0,2.67-2.67" style="fill: #4cbf7a"/>
      <path d="M56.37,79.21a2.68,2.68,0,1,0-2.67,2.67,2.67,2.67,0,0,0,2.67-2.67" style="fill: #4cbf7a"/>
      <path d="M64.87,79.21a2.67,2.67,0,1,0-2.67,2.67,2.66,2.66,0,0,0,2.67-2.67" style="fill: #4cbf7a"/>
      <path d="M73.38,79.21a2.68,2.68,0,1,0-2.67,2.67,2.67,2.67,0,0,0,2.67-2.67" style="fill: #4cbf7a"/>
      <path d="M110.7,79.21a2.51,2.51,0,1,0-2.51,2.51,2.51,2.51,0,0,0,2.51-2.51" style="fill: #4cbf7a"/>
      <path d="M119.37,79.21a2.68,2.68,0,1,0-2.68,2.67,2.67,2.67,0,0,0,2.68-2.67" style="fill: #4cbf7a"/>
      <path d="M127.87,79.21a2.68,2.68,0,1,0-2.67,2.67,2.67,2.67,0,0,0,2.67-2.67" style="fill: #4cbf7a"/>
      <path d="M5.35,87.71a2.68,2.68,0,1,0-2.68,2.68,2.68,2.68,0,0,0,2.68-2.68" style="fill: #4cbf7a"/>
      <path d="M13.85,87.71a2.68,2.68,0,1,0-2.67,2.68,2.68,2.68,0,0,0,2.67-2.68" style="fill: #4cbf7a"/>
      <path d="M22.35,87.71a2.67,2.67,0,1,0-2.67,2.68,2.67,2.67,0,0,0,2.67-2.68" style="fill: #4cbf7a"/>
      <path d="M56.37,87.71a2.68,2.68,0,1,0-2.67,2.68,2.68,2.68,0,0,0,2.67-2.68" style="fill: #4cbf7a"/>
      <path d="M64.87,87.71a2.67,2.67,0,1,0-2.67,2.68,2.67,2.67,0,0,0,2.67-2.68" style="fill: #4cbf7a"/>
      <path d="M73.38,87.71a2.68,2.68,0,1,0-2.67,2.68,2.68,2.68,0,0,0,2.67-2.68" style="fill: #4cbf7a"/>
      <path d="M110.7,87.71a2.51,2.51,0,1,0-2.51,2.51,2.51,2.51,0,0,0,2.51-2.51" style="fill: #4cbf7a"/>
      <path d="M119.37,87.71a2.68,2.68,0,1,0-2.68,2.68,2.68,2.68,0,0,0,2.68-2.68" style="fill: #4cbf7a"/>
      <path d="M127.87,87.71a2.68,2.68,0,1,0-2.67,2.68,2.68,2.68,0,0,0,2.67-2.68" style="fill: #4cbf7a"/>
      <path d="M5.35,96.22a2.68,2.68,0,1,0-2.68,2.67,2.68,2.68,0,0,0,2.68-2.67" style="fill: #4cbf7a"/>
      <path d="M13.85,96.22a2.68,2.68,0,1,0-2.67,2.67,2.68,2.68,0,0,0,2.67-2.67" style="fill: #4cbf7a"/>
      <path d="M22.35,96.22a2.67,2.67,0,1,0-2.67,2.67,2.67,2.67,0,0,0,2.67-2.67" style="fill: #4cbf7a"/>
      <path d="M56.37,96.22a2.68,2.68,0,1,0-2.67,2.67,2.68,2.68,0,0,0,2.67-2.67" style="fill: #4cbf7a"/>
      <path d="M64.87,96.22a2.67,2.67,0,1,0-2.67,2.67,2.67,2.67,0,0,0,2.67-2.67" style="fill: #4cbf7a"/>
      <path d="M73.38,96.22a2.68,2.68,0,1,0-2.67,2.67,2.68,2.68,0,0,0,2.67-2.67" style="fill: #4cbf7a"/>
      <path d="M110.7,96.22a2.51,2.51,0,1,0-2.51,2.51,2.51,2.51,0,0,0,2.51-2.51" style="fill: #4cbf7a"/>
      <path d="M119.37,96.22a2.68,2.68,0,1,0-2.68,2.67,2.68,2.68,0,0,0,2.68-2.67" style="fill: #4cbf7a"/>
      <path d="M127.87,96.22a2.68,2.68,0,1,0-2.67,2.67,2.68,2.68,0,0,0,2.67-2.67" style="fill: #4cbf7a"/>
      <path d="M5.35,104.72a2.68,2.68,0,1,0-2.68,2.67,2.67,2.67,0,0,0,2.68-2.67" style="fill: #4cbf7a"/>
      <path d="M13.85,104.72a2.68,2.68,0,1,0-2.67,2.67,2.67,2.67,0,0,0,2.67-2.67" style="fill: #4cbf7a"/>
      <path d="M22.35,104.72a2.67,2.67,0,1,0-2.67,2.67,2.66,2.66,0,0,0,2.67-2.67" style="fill: #4cbf7a"/>
      <path d="M30.86,104.72a2.68,2.68,0,1,0-2.67,2.67,2.67,2.67,0,0,0,2.67-2.67" style="fill: #4cbf7a"/>
      <path d="M39.36,104.72a2.67,2.67,0,1,0-2.67,2.67,2.67,2.67,0,0,0,2.67-2.67" style="fill: #4cbf7a"/>
      <path d="M47.87,104.72a2.68,2.68,0,1,0-2.68,2.67,2.67,2.67,0,0,0,2.68-2.67" style="fill: #4cbf7a"/>
      <path d="M56.37,104.72a2.68,2.68,0,1,0-2.67,2.67,2.67,2.67,0,0,0,2.67-2.67" style="fill: #4cbf7a"/>
      <path d="M64.87,104.72a2.67,2.67,0,1,0-2.67,2.67,2.66,2.66,0,0,0,2.67-2.67" style="fill: #4cbf7a"/>
      <path d="M73.38,104.72a2.68,2.68,0,1,0-2.67,2.67,2.67,2.67,0,0,0,2.67-2.67" style="fill: #4cbf7a"/>
      <path d="M110.7,104.72a2.51,2.51,0,1,0-2.51,2.51,2.51,2.51,0,0,0,2.51-2.51" style="fill: #4cbf7a"/>
      <path d="M119.37,104.72a2.68,2.68,0,1,0-2.68,2.67,2.67,2.67,0,0,0,2.68-2.67" style="fill: #4cbf7a"/>
      <path d="M127.87,104.72a2.68,2.68,0,1,0-2.67,2.67,2.67,2.67,0,0,0,2.67-2.67" style="fill: #4cbf7a"/>
      <path d="M13.85,113.22a2.68,2.68,0,1,0-2.67,2.68,2.68,2.68,0,0,0,2.67-2.68" style="fill: #4cbf7a"/>
      <path d="M22.35,113.22a2.67,2.67,0,1,0-2.67,2.68,2.67,2.67,0,0,0,2.67-2.68" style="fill: #4cbf7a"/>
      <path d="M30.86,113.22a2.68,2.68,0,1,0-2.67,2.68,2.68,2.68,0,0,0,2.67-2.68" style="fill: #4cbf7a"/>
      <path d="M39.36,113.22a2.67,2.67,0,1,0-2.67,2.68,2.68,2.68,0,0,0,2.67-2.68" style="fill: #4cbf7a"/>
      <path d="M47.87,113.22a2.68,2.68,0,1,0-2.68,2.68,2.68,2.68,0,0,0,2.68-2.68" style="fill: #4cbf7a"/>
      <path d="M56.37,113.22a2.68,2.68,0,1,0-2.67,2.68,2.68,2.68,0,0,0,2.67-2.68" style="fill: #4cbf7a"/>
      <path d="M64.87,113.22a2.67,2.67,0,1,0-2.67,2.68,2.67,2.67,0,0,0,2.67-2.68" style="fill: #4cbf7a"/>
      <path d="M110.7,113.22a2.51,2.51,0,1,0-2.51,2.52,2.51,2.51,0,0,0,2.51-2.52" style="fill: #4cbf7a"/>
      <path d="M119.37,113.22a2.68,2.68,0,1,0-2.68,2.68,2.68,2.68,0,0,0,2.68-2.68" style="fill: #4cbf7a"/>
      <path d="M127.87,113.22a2.68,2.68,0,1,0-2.67,2.68,2.68,2.68,0,0,0,2.67-2.68" style="fill: #4cbf7a"/>
      <path d="M22.35,121.73a2.67,2.67,0,1,0-2.67,2.67,2.67,2.67,0,0,0,2.67-2.67" style="fill: #4cbf7a"/>
      <path d="M30.86,121.73a2.68,2.68,0,1,0-2.67,2.67,2.68,2.68,0,0,0,2.67-2.67" style="fill: #4cbf7a"/>
      <path d="M39.36,121.73a2.67,2.67,0,1,0-2.67,2.67,2.68,2.68,0,0,0,2.67-2.67" style="fill: #4cbf7a"/>
      <path d="M47.87,121.73a2.68,2.68,0,1,0-2.68,2.67,2.68,2.68,0,0,0,2.68-2.67" style="fill: #4cbf7a"/>
      <path d="M56.32,121.73a2.63,2.63,0,1,0-2.62,2.62,2.62,2.62,0,0,0,2.62-2.62" style="fill: #4cbf7a"/>
      <path d="M110.7,121.73a2.51,2.51,0,1,0-2.51,2.51,2.51,2.51,0,0,0,2.51-2.51" style="fill: #4cbf7a"/>
      <path d="M119.37,121.73a2.68,2.68,0,1,0-2.68,2.67,2.68,2.68,0,0,0,2.68-2.67" style="fill: #4cbf7a"/>
      <path d="M127.87,121.73a2.68,2.68,0,1,0-2.67,2.67,2.68,2.68,0,0,0,2.67-2.67" style="fill: #4cbf7a"/>
      <path d="M110.7,130.23a2.51,2.51,0,1,0-2.51,2.51,2.51,2.51,0,0,0,2.51-2.51" style="fill: #4cbf7a"/>
      <path d="M119.37,130.23a2.68,2.68,0,1,0-2.68,2.68,2.68,2.68,0,0,0,2.68-2.68" style="fill: #4cbf7a"/>
      <path d="M127.87,130.23a2.68,2.68,0,1,0-2.67,2.68,2.68,2.68,0,0,0,2.67-2.68" style="fill: #4cbf7a"/>
      <path d="M110.7,138.74a2.51,2.51,0,1,0-2.51,2.51,2.51,2.51,0,0,0,2.51-2.51" style="fill: #4cbf7a"/>
      <path d="M119.37,138.74a2.68,2.68,0,1,0-2.68,2.67,2.68,2.68,0,0,0,2.68-2.67" style="fill: #4cbf7a"/>
      <path d="M127.87,138.74a2.68,2.68,0,1,0-2.67,2.67,2.68,2.68,0,0,0,2.67-2.67" style="fill: #4cbf7a"/>
      <path d="M80.88,180.25a2.68,2.68,0,1,0-2.67,2.68,2.68,2.68,0,0,0,2.67-2.68" style="fill: #4cbf7a"/>
      <path d="M89.38,180.25a2.67,2.67,0,1,0-2.67,2.68,2.67,2.67,0,0,0,2.67-2.68" style="fill: #4cbf7a"/>
      <path d="M97.89,180.25a2.68,2.68,0,1,0-2.67,2.68,2.68,2.68,0,0,0,2.67-2.68" style="fill: #4cbf7a"/>
      <path d="M140.41,180.25a2.68,2.68,0,1,0-2.67,2.68,2.68,2.68,0,0,0,2.67-2.68" style="fill: #4cbf7a"/>
      <path d="M148.91,180.25a2.67,2.67,0,1,0-2.67,2.68,2.67,2.67,0,0,0,2.67-2.68" style="fill: #4cbf7a"/>
      <path d="M157.42,180.25a2.68,2.68,0,1,0-2.68,2.68,2.68,2.68,0,0,0,2.68-2.68" style="fill: #4cbf7a"/>
      <path d="M80.88,188.76a2.68,2.68,0,1,0-2.67,2.67,2.68,2.68,0,0,0,2.67-2.67" style="fill: #4cbf7a"/>
      <path d="M89.38,188.76a2.67,2.67,0,1,0-2.67,2.67,2.67,2.67,0,0,0,2.67-2.67" style="fill: #4cbf7a"/>
      <path d="M97.89,188.76a2.68,2.68,0,1,0-2.67,2.67,2.68,2.68,0,0,0,2.67-2.67" style="fill: #4cbf7a"/>
      <path d="M106.39,188.76a2.67,2.67,0,1,0-2.67,2.67,2.67,2.67,0,0,0,2.67-2.67" style="fill: #4cbf7a"/>
      <path d="M131.9,188.76a2.67,2.67,0,1,0-2.67,2.67,2.67,2.67,0,0,0,2.67-2.67" style="fill: #4cbf7a"/>
      <path d="M140.41,188.76a2.68,2.68,0,1,0-2.67,2.67,2.68,2.68,0,0,0,2.67-2.67" style="fill: #4cbf7a"/>
      <path d="M148.91,188.76a2.67,2.67,0,1,0-2.67,2.67,2.67,2.67,0,0,0,2.67-2.67" style="fill: #4cbf7a"/>
      <path d="M157.21,188.76a2.47,2.47,0,1,0-2.47,2.46,2.48,2.48,0,0,0,2.47-2.46" style="fill: #4cbf7a"/>
      <path d="M89.38,197.26a2.67,2.67,0,1,0-2.67,2.67,2.66,2.66,0,0,0,2.67-2.67" style="fill: #4cbf7a"/>
      <path d="M97.89,197.26a2.68,2.68,0,1,0-2.67,2.67,2.67,2.67,0,0,0,2.67-2.67" style="fill: #4cbf7a"/>
      <path d="M106.39,197.26a2.67,2.67,0,1,0-2.67,2.67,2.66,2.66,0,0,0,2.67-2.67" style="fill: #4cbf7a"/>
      <path d="M114.9,197.26a2.68,2.68,0,1,0-2.68,2.67,2.67,2.67,0,0,0,2.68-2.67" style="fill: #4cbf7a"/>
      <path d="M123.4,197.26a2.68,2.68,0,1,0-2.67,2.67,2.67,2.67,0,0,0,2.67-2.67" style="fill: #4cbf7a"/>
      <path d="M131.9,197.26a2.67,2.67,0,1,0-2.67,2.67,2.66,2.66,0,0,0,2.67-2.67" style="fill: #4cbf7a"/>
      <path d="M140.41,197.26a2.68,2.68,0,1,0-2.67,2.67,2.67,2.67,0,0,0,2.67-2.67" style="fill: #4cbf7a"/>
      <path d="M148.91,197.26a2.67,2.67,0,1,0-2.67,2.67,2.66,2.66,0,0,0,2.67-2.67" style="fill: #4cbf7a"/>
      <path d="M89.38,205.76a2.67,2.67,0,1,0-2.67,2.68,2.67,2.67,0,0,0,2.67-2.68" style="fill: #4cbf7a"/>
      <path d="M97.89,205.76a2.68,2.68,0,1,0-2.67,2.68,2.68,2.68,0,0,0,2.67-2.68" style="fill: #4cbf7a"/>
      <path d="M106.39,205.76a2.67,2.67,0,1,0-2.67,2.68,2.67,2.67,0,0,0,2.67-2.68" style="fill: #4cbf7a"/>
      <path d="M114.9,205.76a2.68,2.68,0,1,0-2.68,2.68,2.68,2.68,0,0,0,2.68-2.68" style="fill: #4cbf7a"/>
      <path d="M123.4,205.76a2.68,2.68,0,1,0-2.67,2.68,2.68,2.68,0,0,0,2.67-2.68" style="fill: #4cbf7a"/>
      <path d="M131.9,205.76a2.67,2.67,0,1,0-2.67,2.68,2.67,2.67,0,0,0,2.67-2.68" style="fill: #4cbf7a"/>
      <path d="M140.41,205.76a2.68,2.68,0,1,0-2.67,2.68,2.68,2.68,0,0,0,2.67-2.68" style="fill: #4cbf7a"/>
      <path d="M106.39,214.27a2.67,2.67,0,1,0-2.67,2.67,2.67,2.67,0,0,0,2.67-2.67" style="fill: #4cbf7a"/>
      <path d="M114.9,214.27a2.68,2.68,0,1,0-2.68,2.67,2.68,2.68,0,0,0,2.68-2.67" style="fill: #4cbf7a"/>
      <path d="M123.4,214.27a2.68,2.68,0,1,0-2.67,2.67,2.68,2.68,0,0,0,2.67-2.67" style="fill: #4cbf7a"/>
      <path d="M131.9,214.27a2.67,2.67,0,1,0-2.67,2.67,2.67,2.67,0,0,0,2.67-2.67" style="fill: #4cbf7a"/>
    </g>
  </g>
</svg>
