<svg xmlns="http://www.w3.org/2000/svg" width="234.95" height="225.45" viewBox="0 0 234.95 225.45">
  <g data-name="Layer 2">
    <g data-name="Layer 1" fill="#002f2c">
      <path d="M192.43,2.67a2.67,2.67,0,1,0-2.67,2.68,2.67,2.67,0,0,0,2.67-2.68" />
      <path d="M200.94,2.67a2.68,2.68,0,1,0-2.68,2.68,2.68,2.68,0,0,0,2.68-2.68" />
      <path d="M209.42,2.67a2.66,2.66,0,1,0-2.65,2.66,2.65,2.65,0,0,0,2.65-2.66" />
      <path d="M5.35,11.18a2.68,2.68,0,1,0-2.68,2.67,2.68,2.68,0,0,0,2.68-2.67" />
      <path d="M13.85,11.18a2.68,2.68,0,1,0-2.67,2.67,2.68,2.68,0,0,0,2.67-2.67" />
      <path d="M22.35,11.18a2.67,2.67,0,1,0-2.67,2.67,2.67,2.67,0,0,0,2.67-2.67" />
      <path d="M30.86,11.18a2.68,2.68,0,1,0-2.67,2.67,2.68,2.68,0,0,0,2.67-2.67" />
      <path d="M39.36,11.18a2.67,2.67,0,1,0-2.67,2.67,2.68,2.68,0,0,0,2.67-2.67" />
      <path d="M47.87,11.18a2.68,2.68,0,1,0-2.68,2.67,2.68,2.68,0,0,0,2.68-2.67" />
      <path d="M56.37,11.18a2.68,2.68,0,1,0-2.67,2.67,2.68,2.68,0,0,0,2.67-2.67" />
      <path d="M64.87,11.18a2.67,2.67,0,1,0-2.67,2.67,2.67,2.67,0,0,0,2.67-2.67" />
      <path d="M73.38,11.18a2.68,2.68,0,1,0-2.68,2.67,2.68,2.68,0,0,0,2.68-2.67" />
      <path d="M175.42,11.18a2.67,2.67,0,1,0-2.67,2.67,2.67,2.67,0,0,0,2.67-2.67" />
      <path d="M183.93,11.18a2.68,2.68,0,1,0-2.67,2.67,2.68,2.68,0,0,0,2.67-2.67" />
      <path d="M192.43,11.18a2.67,2.67,0,1,0-2.67,2.67,2.67,2.67,0,0,0,2.67-2.67" />
      <path d="M200.94,11.18a2.68,2.68,0,1,0-2.68,2.67,2.68,2.68,0,0,0,2.68-2.67" />
      <path d="M209.44,11.18a2.68,2.68,0,1,0-2.67,2.67,2.68,2.68,0,0,0,2.67-2.67" />
      <path d="M218,11.18a2.68,2.68,0,1,0-2.68,2.67A2.68,2.68,0,0,0,218,11.18" />
      <path d="M226.42,11.18a2.65,2.65,0,1,0-2.64,2.64,2.64,2.64,0,0,0,2.64-2.64" />
      <path d="M5.35,19.68a2.68,2.68,0,1,0-2.68,2.67,2.67,2.67,0,0,0,2.68-2.67" />
      <path d="M13.85,19.68a2.68,2.68,0,1,0-2.67,2.67,2.67,2.67,0,0,0,2.67-2.67" />
      <path d="M22.35,19.68a2.67,2.67,0,1,0-2.67,2.67,2.66,2.66,0,0,0,2.67-2.67" />
      <path d="M30.86,19.68a2.68,2.68,0,1,0-2.67,2.67,2.67,2.67,0,0,0,2.67-2.67" />
      <path d="M39.36,19.68a2.67,2.67,0,1,0-2.67,2.67,2.67,2.67,0,0,0,2.67-2.67" />
      <path d="M47.87,19.68a2.68,2.68,0,1,0-2.68,2.67,2.67,2.67,0,0,0,2.68-2.67" />
      <path d="M56.37,19.68a2.68,2.68,0,1,0-2.67,2.67,2.67,2.67,0,0,0,2.67-2.67" />
      <path d="M64.87,19.68a2.67,2.67,0,1,0-2.67,2.67,2.66,2.66,0,0,0,2.67-2.67" />
      <path d="M73.38,19.68a2.68,2.68,0,1,0-2.68,2.67,2.67,2.67,0,0,0,2.68-2.67" />
      <path d="M166.92,19.68a2.68,2.68,0,1,0-2.67,2.67,2.67,2.67,0,0,0,2.67-2.67" />
      <path d="M175.42,19.68a2.67,2.67,0,1,0-2.67,2.67,2.66,2.66,0,0,0,2.67-2.67" />
      <path d="M183.93,19.68a2.68,2.68,0,1,0-2.67,2.67,2.67,2.67,0,0,0,2.67-2.67" />
      <path d="M192.43,19.68a2.67,2.67,0,1,0-2.67,2.67,2.66,2.66,0,0,0,2.67-2.67" />
      <path d="M200.94,19.68a2.68,2.68,0,1,0-2.68,2.67,2.67,2.67,0,0,0,2.68-2.67" />
      <path d="M209.44,19.68a2.68,2.68,0,1,0-2.67,2.67,2.67,2.67,0,0,0,2.67-2.67" />
      <path d="M218,19.68a2.68,2.68,0,1,0-2.68,2.67A2.67,2.67,0,0,0,218,19.68" />
      <path d="M226.45,19.68a2.68,2.68,0,1,0-2.67,2.67,2.67,2.67,0,0,0,2.67-2.67" />
      <path d="M234.2,19.68a1.92,1.92,0,1,0-1.92,1.92,1.92,1.92,0,0,0,1.92-1.92" />
      <path d="M5.35,28.18a2.68,2.68,0,1,0-2.68,2.68,2.68,2.68,0,0,0,2.68-2.68" />
      <path d="M13.85,28.18a2.68,2.68,0,1,0-2.67,2.68,2.68,2.68,0,0,0,2.67-2.68" />
      <path d="M22.35,28.18a2.67,2.67,0,1,0-2.67,2.68,2.67,2.67,0,0,0,2.67-2.68" />
      <path d="M30.86,28.18a2.68,2.68,0,1,0-2.67,2.68,2.68,2.68,0,0,0,2.67-2.68" />
      <path d="M39.36,28.18a2.67,2.67,0,1,0-2.67,2.68,2.68,2.68,0,0,0,2.67-2.68" />
      <path d="M47.87,28.18a2.68,2.68,0,1,0-2.68,2.68,2.68,2.68,0,0,0,2.68-2.68" />
      <path d="M56.37,28.18a2.68,2.68,0,1,0-2.67,2.68,2.68,2.68,0,0,0,2.67-2.68" />
      <path d="M64.87,28.18a2.67,2.67,0,1,0-2.67,2.68,2.67,2.67,0,0,0,2.67-2.68" />
      <path d="M73.38,28.18a2.68,2.68,0,1,0-2.68,2.68,2.68,2.68,0,0,0,2.68-2.68" />
      <path d="M166.92,28.18a2.68,2.68,0,1,0-2.67,2.68,2.68,2.68,0,0,0,2.67-2.68" />
      <path d="M175.42,28.18a2.67,2.67,0,1,0-2.67,2.68,2.67,2.67,0,0,0,2.67-2.68" />
      <path d="M183.93,28.18a2.68,2.68,0,1,0-2.67,2.68,2.68,2.68,0,0,0,2.67-2.68" />
      <path d="M191.48,28.18a1.72,1.72,0,1,0-1.72,1.73,1.72,1.72,0,0,0,1.72-1.73" />
      <path d="M209.44,28.18a2.68,2.68,0,1,0-2.67,2.68,2.68,2.68,0,0,0,2.67-2.68" />
      <path d="M218,28.18a2.68,2.68,0,1,0-2.68,2.68A2.68,2.68,0,0,0,218,28.18" />
      <path d="M226.45,28.18a2.68,2.68,0,1,0-2.67,2.68,2.68,2.68,0,0,0,2.67-2.68" />
      <path d="M235,28.18a2.67,2.67,0,1,0-2.67,2.68A2.67,2.67,0,0,0,235,28.18" />
      <path d="M166.92,36.69a2.68,2.68,0,1,0-2.67,2.67,2.67,2.67,0,0,0,2.67-2.67" />
      <path d="M175.42,36.69a2.67,2.67,0,1,0-2.67,2.67,2.66,2.66,0,0,0,2.67-2.67" />
      <path d="M183.93,36.69a2.68,2.68,0,1,0-2.67,2.67,2.67,2.67,0,0,0,2.67-2.67" />
      <path d="M218,36.69a2.68,2.68,0,1,0-2.68,2.67A2.67,2.67,0,0,0,218,36.69" />
      <path d="M226.45,36.69a2.68,2.68,0,1,0-2.67,2.67,2.67,2.67,0,0,0,2.67-2.67" />
      <path d="M235,36.69a2.67,2.67,0,1,0-2.67,2.67A2.66,2.66,0,0,0,235,36.69" />
      <path d="M110.7,45.19a2.51,2.51,0,1,0-2.51,2.52,2.51,2.51,0,0,0,2.51-2.52" />
      <path d="M119.37,45.19a2.68,2.68,0,1,0-2.68,2.68,2.68,2.68,0,0,0,2.68-2.68" />
      <path d="M127.87,45.19a2.68,2.68,0,1,0-2.67,2.68,2.68,2.68,0,0,0,2.67-2.68" />
      <path d="M110.7,53.7a2.51,2.51,0,1,0-2.51,2.51,2.51,2.51,0,0,0,2.51-2.51" />
      <path d="M119.37,53.7a2.68,2.68,0,1,0-2.68,2.67,2.68,2.68,0,0,0,2.68-2.67" />
      <path d="M127.87,53.7a2.68,2.68,0,1,0-2.67,2.67,2.68,2.68,0,0,0,2.67-2.67" />
      <path d="M22.35,62.2a2.67,2.67,0,1,0-2.67,2.67,2.66,2.66,0,0,0,2.67-2.67" />
      <path d="M30.86,62.2a2.68,2.68,0,1,0-2.67,2.67,2.67,2.67,0,0,0,2.67-2.67" />
      <path d="M39.36,62.2a2.67,2.67,0,1,0-2.67,2.67,2.67,2.67,0,0,0,2.67-2.67" />
      <path d="M47.87,62.2a2.68,2.68,0,1,0-2.68,2.67,2.67,2.67,0,0,0,2.68-2.67" />
      <path d="M56.37,62.2a2.68,2.68,0,1,0-2.67,2.67,2.67,2.67,0,0,0,2.67-2.67" />
      <path d="M110.7,62.2a2.51,2.51,0,1,0-2.51,2.51,2.51,2.51,0,0,0,2.51-2.51" />
      <path d="M119.37,62.2a2.68,2.68,0,1,0-2.68,2.67,2.67,2.67,0,0,0,2.68-2.67" />
      <path d="M127.87,62.2a2.68,2.68,0,1,0-2.67,2.67,2.67,2.67,0,0,0,2.67-2.67" />
      <path d="M183.93,62.2a2.68,2.68,0,1,0-2.67,2.67,2.67,2.67,0,0,0,2.67-2.67" />
      <path d="M192.43,62.2a2.67,2.67,0,1,0-2.67,2.67,2.66,2.66,0,0,0,2.67-2.67" />
      <path d="M200.94,62.2a2.68,2.68,0,1,0-2.68,2.67,2.67,2.67,0,0,0,2.68-2.67" />
      <path d="M209.44,62.2a2.68,2.68,0,1,0-2.67,2.67,2.67,2.67,0,0,0,2.67-2.67" />
      <path d="M218,62.2a2.68,2.68,0,1,0-2.68,2.67A2.67,2.67,0,0,0,218,62.2" />
      <path d="M13.85,70.71a2.68,2.68,0,1,0-2.67,2.67,2.68,2.68,0,0,0,2.67-2.67" />
      <path d="M22.35,70.71a2.67,2.67,0,1,0-2.67,2.67,2.67,2.67,0,0,0,2.67-2.67" />
      <path d="M30.86,70.71a2.68,2.68,0,1,0-2.67,2.67,2.68,2.68,0,0,0,2.67-2.67" />
      <path d="M39.36,70.71a2.67,2.67,0,1,0-2.67,2.67,2.68,2.68,0,0,0,2.67-2.67" />
      <path d="M47.87,70.71a2.68,2.68,0,1,0-2.68,2.67,2.68,2.68,0,0,0,2.68-2.67" />
      <path d="M56.37,70.71a2.68,2.68,0,1,0-2.67,2.67,2.68,2.68,0,0,0,2.67-2.67" />
      <path d="M64.87,70.71a2.67,2.67,0,1,0-2.67,2.67,2.67,2.67,0,0,0,2.67-2.67" />
      <path d="M110.7,70.71a2.51,2.51,0,1,0-2.51,2.51,2.51,2.51,0,0,0,2.51-2.51" />
      <path d="M119.37,70.71a2.68,2.68,0,1,0-2.68,2.67,2.68,2.68,0,0,0,2.68-2.67" />
      <path d="M127.87,70.71a2.68,2.68,0,1,0-2.67,2.67,2.68,2.68,0,0,0,2.67-2.67" />
      <path d="M175.42,70.71a2.67,2.67,0,1,0-2.67,2.67,2.67,2.67,0,0,0,2.67-2.67" />
      <path d="M183.93,70.71a2.68,2.68,0,1,0-2.67,2.67,2.68,2.68,0,0,0,2.67-2.67" />
      <path d="M192.43,70.71a2.67,2.67,0,1,0-2.67,2.67,2.67,2.67,0,0,0,2.67-2.67" />
      <path d="M200.94,70.71a2.68,2.68,0,1,0-2.68,2.67,2.68,2.68,0,0,0,2.68-2.67" />
      <path d="M209.44,70.71a2.68,2.68,0,1,0-2.67,2.67,2.68,2.68,0,0,0,2.67-2.67" />
      <path d="M218,70.71a2.68,2.68,0,1,0-2.68,2.67A2.68,2.68,0,0,0,218,70.71" />
      <path d="M226.45,70.71a2.68,2.68,0,1,0-2.67,2.67,2.68,2.68,0,0,0,2.67-2.67" />
      <path d="M5.35,79.21a2.68,2.68,0,1,0-2.68,2.67,2.67,2.67,0,0,0,2.68-2.67" />
      <path d="M13.85,79.21a2.68,2.68,0,1,0-2.67,2.67,2.67,2.67,0,0,0,2.67-2.67" />
      <path d="M22.35,79.21a2.67,2.67,0,1,0-2.67,2.67,2.66,2.66,0,0,0,2.67-2.67" />
      <path d="M30.86,79.21a2.68,2.68,0,1,0-2.67,2.67,2.67,2.67,0,0,0,2.67-2.67" />
      <path d="M39.36,79.21a2.67,2.67,0,1,0-2.67,2.67,2.67,2.67,0,0,0,2.67-2.67" />
      <path d="M47.87,79.21a2.68,2.68,0,1,0-2.68,2.67,2.67,2.67,0,0,0,2.68-2.67" />
      <path d="M56.37,79.21a2.68,2.68,0,1,0-2.67,2.67,2.67,2.67,0,0,0,2.67-2.67" />
      <path d="M64.87,79.21a2.67,2.67,0,1,0-2.67,2.67,2.66,2.66,0,0,0,2.67-2.67" />
      <path d="M73.38,79.21a2.68,2.68,0,1,0-2.68,2.67,2.67,2.67,0,0,0,2.68-2.67" />
      <path d="M110.7,79.21a2.51,2.51,0,1,0-2.51,2.51,2.51,2.51,0,0,0,2.51-2.51" />
      <path d="M119.37,79.21a2.68,2.68,0,1,0-2.68,2.67,2.67,2.67,0,0,0,2.68-2.67" />
      <path d="M127.87,79.21a2.68,2.68,0,1,0-2.67,2.67,2.67,2.67,0,0,0,2.67-2.67" />
      <path d="M166.92,79.21a2.68,2.68,0,1,0-2.67,2.67,2.67,2.67,0,0,0,2.67-2.67" />
      <path d="M175.42,79.21a2.67,2.67,0,1,0-2.67,2.67,2.66,2.66,0,0,0,2.67-2.67" />
      <path d="M183.93,79.21a2.68,2.68,0,1,0-2.67,2.67,2.67,2.67,0,0,0,2.67-2.67" />
      <path d="M192.43,79.21a2.67,2.67,0,1,0-2.67,2.67,2.66,2.66,0,0,0,2.67-2.67" />
      <path d="M200.94,79.21a2.68,2.68,0,1,0-2.68,2.67,2.67,2.67,0,0,0,2.68-2.67" />
      <path d="M209.44,79.21a2.68,2.68,0,1,0-2.67,2.67,2.67,2.67,0,0,0,2.67-2.67" />
      <path d="M218,79.21a2.68,2.68,0,1,0-2.68,2.67A2.67,2.67,0,0,0,218,79.21" />
      <path d="M226.45,79.21a2.68,2.68,0,1,0-2.67,2.67,2.67,2.67,0,0,0,2.67-2.67" />
      <path d="M235,79.21a2.67,2.67,0,1,0-2.67,2.67A2.66,2.66,0,0,0,235,79.21" />
      <path d="M5.35,87.71a2.68,2.68,0,1,0-2.68,2.68,2.68,2.68,0,0,0,2.68-2.68" />
      <path d="M13.85,87.71a2.68,2.68,0,1,0-2.67,2.68,2.68,2.68,0,0,0,2.67-2.68" />
      <path d="M22.35,87.71a2.67,2.67,0,1,0-2.67,2.68,2.67,2.67,0,0,0,2.67-2.68" />
      <path d="M56.37,87.71a2.68,2.68,0,1,0-2.67,2.68,2.68,2.68,0,0,0,2.67-2.68" />
      <path d="M64.87,87.71a2.67,2.67,0,1,0-2.67,2.68,2.67,2.67,0,0,0,2.67-2.68" />
      <path d="M73.38,87.71a2.68,2.68,0,1,0-2.68,2.68,2.68,2.68,0,0,0,2.68-2.68" />
      <path d="M110.7,87.71a2.51,2.51,0,1,0-2.51,2.51,2.51,2.51,0,0,0,2.51-2.51" />
      <path d="M119.37,87.71a2.68,2.68,0,1,0-2.68,2.68,2.68,2.68,0,0,0,2.68-2.68" />
      <path d="M127.87,87.71a2.68,2.68,0,1,0-2.67,2.68,2.68,2.68,0,0,0,2.67-2.68" />
      <path d="M166.92,87.71a2.68,2.68,0,1,0-2.67,2.68,2.68,2.68,0,0,0,2.67-2.68" />
      <path d="M175.42,87.71a2.67,2.67,0,1,0-2.67,2.68,2.67,2.67,0,0,0,2.67-2.68" />
      <path d="M183.93,87.71a2.68,2.68,0,1,0-2.67,2.68,2.68,2.68,0,0,0,2.67-2.68" />
      <path d="M218,87.71a2.68,2.68,0,1,0-2.68,2.68A2.68,2.68,0,0,0,218,87.71" />
      <path d="M226.45,87.71a2.68,2.68,0,1,0-2.67,2.68,2.68,2.68,0,0,0,2.67-2.68" />
      <path d="M235,87.71a2.67,2.67,0,1,0-2.67,2.68A2.67,2.67,0,0,0,235,87.71" />
      <path d="M5.35,96.22a2.68,2.68,0,1,0-2.68,2.67,2.68,2.68,0,0,0,2.68-2.67" />
      <path d="M13.85,96.22a2.68,2.68,0,1,0-2.67,2.67,2.68,2.68,0,0,0,2.67-2.67" />
      <path d="M22.35,96.22a2.67,2.67,0,1,0-2.67,2.67,2.67,2.67,0,0,0,2.67-2.67" />
      <path d="M56.37,96.22a2.68,2.68,0,1,0-2.67,2.67,2.68,2.68,0,0,0,2.67-2.67" />
      <path d="M64.87,96.22a2.67,2.67,0,1,0-2.67,2.67,2.67,2.67,0,0,0,2.67-2.67" />
      <path d="M73.38,96.22a2.68,2.68,0,1,0-2.68,2.67,2.68,2.68,0,0,0,2.68-2.67" />
      <path d="M110.7,96.22a2.51,2.51,0,1,0-2.51,2.51,2.51,2.51,0,0,0,2.51-2.51" />
      <path d="M119.37,96.22a2.68,2.68,0,1,0-2.68,2.67,2.68,2.68,0,0,0,2.68-2.67" />
      <path d="M127.87,96.22a2.68,2.68,0,1,0-2.67,2.67,2.68,2.68,0,0,0,2.67-2.67" />
      <path d="M166.92,96.22a2.68,2.68,0,1,0-2.67,2.67,2.68,2.68,0,0,0,2.67-2.67" />
      <path d="M175.42,96.22a2.67,2.67,0,1,0-2.67,2.67,2.67,2.67,0,0,0,2.67-2.67" />
      <path d="M183.93,96.22a2.68,2.68,0,1,0-2.67,2.67,2.68,2.68,0,0,0,2.67-2.67" />
      <path d="M218,96.22a2.68,2.68,0,1,0-2.68,2.67A2.68,2.68,0,0,0,218,96.22" />
      <path d="M226.45,96.22a2.68,2.68,0,1,0-2.67,2.67,2.68,2.68,0,0,0,2.67-2.67" />
      <path d="M235,96.22a2.67,2.67,0,1,0-2.67,2.67A2.67,2.67,0,0,0,235,96.22" />
      <path d="M5.35,104.72a2.68,2.68,0,1,0-2.68,2.67,2.67,2.67,0,0,0,2.68-2.67" />
      <path d="M13.85,104.72a2.68,2.68,0,1,0-2.67,2.67,2.67,2.67,0,0,0,2.67-2.67" />
      <path d="M22.35,104.72a2.67,2.67,0,1,0-2.67,2.67,2.66,2.66,0,0,0,2.67-2.67" />
      <path d="M56.37,104.72a2.68,2.68,0,1,0-2.67,2.67,2.67,2.67,0,0,0,2.67-2.67" />
      <path d="M64.87,104.72a2.67,2.67,0,1,0-2.67,2.67,2.66,2.66,0,0,0,2.67-2.67" />
      <path d="M73.38,104.72a2.68,2.68,0,1,0-2.68,2.67,2.67,2.67,0,0,0,2.68-2.67" />
      <path d="M110.7,104.72a2.51,2.51,0,1,0-2.51,2.51,2.51,2.51,0,0,0,2.51-2.51" />
      <path d="M119.37,104.72a2.68,2.68,0,1,0-2.68,2.67,2.67,2.67,0,0,0,2.68-2.67" />
      <path d="M127.87,104.72a2.68,2.68,0,1,0-2.67,2.67,2.67,2.67,0,0,0,2.67-2.67" />
      <path d="M166.92,104.72a2.68,2.68,0,1,0-2.67,2.67,2.67,2.67,0,0,0,2.67-2.67" />
      <path d="M175.42,104.72a2.67,2.67,0,1,0-2.67,2.67,2.66,2.66,0,0,0,2.67-2.67" />
      <path d="M183.93,104.72a2.68,2.68,0,1,0-2.67,2.67,2.67,2.67,0,0,0,2.67-2.67" />
      <path d="M218,104.72a2.68,2.68,0,1,0-2.68,2.67,2.67,2.67,0,0,0,2.68-2.67" />
      <path d="M226.45,104.72a2.68,2.68,0,1,0-2.67,2.67,2.67,2.67,0,0,0,2.67-2.67" />
      <path d="M235,104.72a2.67,2.67,0,1,0-2.67,2.67,2.66,2.66,0,0,0,2.67-2.67" />
      <path d="M5.35,113.22a2.68,2.68,0,1,0-2.68,2.68,2.68,2.68,0,0,0,2.68-2.68" />
      <path d="M13.85,113.22a2.68,2.68,0,1,0-2.67,2.68,2.68,2.68,0,0,0,2.67-2.68" />
      <path d="M22.35,113.22a2.67,2.67,0,1,0-2.67,2.68,2.67,2.67,0,0,0,2.67-2.68" />
      <path d="M30.86,113.22a2.68,2.68,0,1,0-2.67,2.68,2.68,2.68,0,0,0,2.67-2.68" />
      <path d="M39.36,113.22a2.67,2.67,0,1,0-2.67,2.68,2.68,2.68,0,0,0,2.67-2.68" />
      <path d="M47.87,113.22a2.68,2.68,0,1,0-2.68,2.68,2.68,2.68,0,0,0,2.68-2.68" />
      <path d="M56.37,113.22a2.68,2.68,0,1,0-2.67,2.68,2.68,2.68,0,0,0,2.67-2.68" />
      <path d="M64.87,113.22a2.67,2.67,0,1,0-2.67,2.68,2.67,2.67,0,0,0,2.67-2.68" />
      <path d="M73.38,113.22a2.68,2.68,0,1,0-2.68,2.68,2.68,2.68,0,0,0,2.68-2.68" />
      <path d="M110.7,113.22a2.51,2.51,0,1,0-2.51,2.52,2.51,2.51,0,0,0,2.51-2.52" />
      <path d="M119.37,113.22a2.68,2.68,0,1,0-2.68,2.68,2.68,2.68,0,0,0,2.68-2.68" />
      <path d="M127.87,113.22a2.68,2.68,0,1,0-2.67,2.68,2.68,2.68,0,0,0,2.67-2.68" />
      <path d="M166.92,113.22a2.68,2.68,0,1,0-2.67,2.68,2.68,2.68,0,0,0,2.67-2.68" />
      <path d="M175.42,113.22a2.67,2.67,0,1,0-2.67,2.68,2.67,2.67,0,0,0,2.67-2.68" />
      <path d="M183.93,113.22a2.68,2.68,0,1,0-2.67,2.68,2.68,2.68,0,0,0,2.67-2.68" />
      <path d="M192.43,113.22a2.67,2.67,0,1,0-2.67,2.68,2.67,2.67,0,0,0,2.67-2.68" />
      <path d="M200.94,113.22a2.68,2.68,0,1,0-2.68,2.68,2.68,2.68,0,0,0,2.68-2.68" />
      <path d="M209.44,113.22a2.68,2.68,0,1,0-2.67,2.68,2.68,2.68,0,0,0,2.67-2.68" />
      <path d="M218,113.22a2.68,2.68,0,1,0-2.68,2.68,2.68,2.68,0,0,0,2.68-2.68" />
      <path d="M226.45,113.22a2.68,2.68,0,1,0-2.67,2.68,2.68,2.68,0,0,0,2.67-2.68" />
      <path d="M234.84,113.22a2.56,2.56,0,1,0-2.56,2.56,2.56,2.56,0,0,0,2.56-2.56" />
      <path d="M13.85,121.73a2.68,2.68,0,1,0-2.67,2.67,2.68,2.68,0,0,0,2.67-2.67" />
      <path d="M22.35,121.73a2.67,2.67,0,1,0-2.67,2.67,2.67,2.67,0,0,0,2.67-2.67" />
      <path d="M30.86,121.73a2.68,2.68,0,1,0-2.67,2.67,2.68,2.68,0,0,0,2.67-2.67" />
      <path d="M39.36,121.73a2.67,2.67,0,1,0-2.67,2.67,2.68,2.68,0,0,0,2.67-2.67" />
      <path d="M47.87,121.73a2.68,2.68,0,1,0-2.68,2.67,2.68,2.68,0,0,0,2.68-2.67" />
      <path d="M56.37,121.73a2.68,2.68,0,1,0-2.67,2.67,2.68,2.68,0,0,0,2.67-2.67" />
      <path d="M64.87,121.73a2.67,2.67,0,1,0-2.67,2.67,2.67,2.67,0,0,0,2.67-2.67" />
      <path d="M110.7,121.73a2.51,2.51,0,1,0-2.51,2.51,2.51,2.51,0,0,0,2.51-2.51" />
      <path d="M119.37,121.73a2.68,2.68,0,1,0-2.68,2.67,2.68,2.68,0,0,0,2.68-2.67" />
      <path d="M127.87,121.73a2.68,2.68,0,1,0-2.67,2.67,2.68,2.68,0,0,0,2.67-2.67" />
      <path d="M175.42,121.73a2.67,2.67,0,1,0-2.67,2.67,2.67,2.67,0,0,0,2.67-2.67" />
      <path d="M183.93,121.73a2.68,2.68,0,1,0-2.67,2.67,2.68,2.68,0,0,0,2.67-2.67" />
      <path d="M192.43,121.73a2.67,2.67,0,1,0-2.67,2.67,2.67,2.67,0,0,0,2.67-2.67" />
      <path d="M200.94,121.73a2.68,2.68,0,1,0-2.68,2.67,2.68,2.68,0,0,0,2.68-2.67" />
      <path d="M209.44,121.73a2.68,2.68,0,1,0-2.67,2.67,2.68,2.68,0,0,0,2.67-2.67" />
      <path d="M218,121.73a2.68,2.68,0,1,0-2.68,2.67,2.68,2.68,0,0,0,2.68-2.67" />
      <path d="M226.45,121.73a2.68,2.68,0,1,0-2.67,2.67,2.68,2.68,0,0,0,2.67-2.67" />
      <path d="M22.35,130.23a2.67,2.67,0,1,0-2.67,2.68,2.67,2.67,0,0,0,2.67-2.68" />
      <path d="M30.86,130.23a2.68,2.68,0,1,0-2.67,2.68,2.68,2.68,0,0,0,2.67-2.68" />
      <path d="M39.36,130.23a2.67,2.67,0,1,0-2.67,2.68,2.68,2.68,0,0,0,2.67-2.68" />
      <path d="M47.87,130.23a2.68,2.68,0,1,0-2.68,2.68,2.68,2.68,0,0,0,2.68-2.68" />
      <path d="M56.32,130.23a2.63,2.63,0,1,0-2.62,2.63,2.62,2.62,0,0,0,2.62-2.63" />
      <path d="M110.7,130.23a2.51,2.51,0,1,0-2.51,2.51,2.51,2.51,0,0,0,2.51-2.51" />
      <path d="M119.37,130.23a2.68,2.68,0,1,0-2.68,2.68,2.68,2.68,0,0,0,2.68-2.68" />
      <path d="M127.87,130.23a2.68,2.68,0,1,0-2.67,2.68,2.68,2.68,0,0,0,2.67-2.68" />
      <path d="M183.93,130.23a2.68,2.68,0,1,0-2.67,2.68,2.68,2.68,0,0,0,2.67-2.68" />
      <path d="M192.43,130.23a2.67,2.67,0,1,0-2.67,2.68,2.67,2.67,0,0,0,2.67-2.68" />
      <path d="M200.94,130.23a2.68,2.68,0,1,0-2.68,2.68,2.68,2.68,0,0,0,2.68-2.68" />
      <path d="M209.44,130.23a2.68,2.68,0,1,0-2.67,2.68,2.68,2.68,0,0,0,2.67-2.68" />
      <path d="M217.7,130.23a2.43,2.43,0,1,0-2.43,2.43,2.43,2.43,0,0,0,2.43-2.43" />
      <path d="M110.7,138.74a2.51,2.51,0,1,0-2.51,2.51,2.51,2.51,0,0,0,2.51-2.51" />
      <path d="M119.37,138.74a2.68,2.68,0,1,0-2.68,2.67,2.68,2.68,0,0,0,2.68-2.67" />
      <path d="M127.87,138.74a2.68,2.68,0,1,0-2.67,2.67,2.68,2.68,0,0,0,2.67-2.67" />
      <path d="M110.7,147.24a2.51,2.51,0,1,0-2.51,2.51,2.51,2.51,0,0,0,2.51-2.51" />
      <path d="M119.37,147.24a2.68,2.68,0,1,0-2.68,2.67,2.67,2.67,0,0,0,2.68-2.67" />
      <path d="M127.87,147.24a2.68,2.68,0,1,0-2.67,2.67,2.67,2.67,0,0,0,2.67-2.67" />
      <path d="M80.88,188.76a2.68,2.68,0,1,0-2.67,2.67,2.68,2.68,0,0,0,2.67-2.67" />
      <path d="M89.38,188.76a2.67,2.67,0,1,0-2.67,2.67,2.67,2.67,0,0,0,2.67-2.67" />
      <path d="M97.89,188.76a2.68,2.68,0,1,0-2.67,2.67,2.68,2.68,0,0,0,2.67-2.67" />
      <path d="M140.41,188.76a2.68,2.68,0,1,0-2.67,2.67,2.68,2.68,0,0,0,2.67-2.67" />
      <path d="M148.91,188.76a2.67,2.67,0,1,0-2.67,2.67,2.67,2.67,0,0,0,2.67-2.67" />
      <path d="M157.42,188.76a2.68,2.68,0,1,0-2.68,2.67,2.68,2.68,0,0,0,2.68-2.67" />
      <path d="M80.88,197.26a2.68,2.68,0,1,0-2.67,2.67,2.67,2.67,0,0,0,2.67-2.67" />
      <path d="M89.38,197.26a2.67,2.67,0,1,0-2.67,2.67,2.66,2.66,0,0,0,2.67-2.67" />
      <path d="M97.89,197.26a2.68,2.68,0,1,0-2.67,2.67,2.67,2.67,0,0,0,2.67-2.67" />
      <path d="M106.39,197.26a2.67,2.67,0,1,0-2.67,2.67,2.66,2.66,0,0,0,2.67-2.67" />
      <path d="M131.9,197.26a2.67,2.67,0,1,0-2.67,2.67,2.66,2.66,0,0,0,2.67-2.67" />
      <path d="M140.41,197.26a2.68,2.68,0,1,0-2.67,2.67,2.67,2.67,0,0,0,2.67-2.67" />
      <path d="M148.91,197.26a2.67,2.67,0,1,0-2.67,2.67,2.66,2.66,0,0,0,2.67-2.67" />
      <path d="M157.21,197.26a2.47,2.47,0,1,0-2.47,2.46,2.47,2.47,0,0,0,2.47-2.46" />
      <path d="M89.38,205.76a2.67,2.67,0,1,0-2.67,2.68,2.67,2.67,0,0,0,2.67-2.68" />
      <path d="M97.89,205.76a2.68,2.68,0,1,0-2.67,2.68,2.68,2.68,0,0,0,2.67-2.68" />
      <path d="M106.39,205.76a2.67,2.67,0,1,0-2.67,2.68,2.67,2.67,0,0,0,2.67-2.68" />
      <path d="M114.9,205.76a2.68,2.68,0,1,0-2.68,2.68,2.68,2.68,0,0,0,2.68-2.68" />
      <path d="M123.4,205.76a2.68,2.68,0,1,0-2.67,2.68,2.68,2.68,0,0,0,2.67-2.68" />
      <path d="M131.9,205.76a2.67,2.67,0,1,0-2.67,2.68,2.67,2.67,0,0,0,2.67-2.68" />
      <path d="M140.41,205.76a2.68,2.68,0,1,0-2.67,2.68,2.68,2.68,0,0,0,2.67-2.68" />
      <path d="M148.91,205.76a2.67,2.67,0,1,0-2.67,2.68,2.67,2.67,0,0,0,2.67-2.68" />
      <path d="M89.38,214.27a2.67,2.67,0,1,0-2.67,2.67,2.67,2.67,0,0,0,2.67-2.67" />
      <path d="M97.89,214.27a2.68,2.68,0,1,0-2.67,2.67,2.68,2.68,0,0,0,2.67-2.67" />
      <path d="M106.39,214.27a2.67,2.67,0,1,0-2.67,2.67,2.67,2.67,0,0,0,2.67-2.67" />
      <path d="M114.9,214.27a2.68,2.68,0,1,0-2.68,2.67,2.68,2.68,0,0,0,2.68-2.67" />
      <path d="M123.4,214.27a2.68,2.68,0,1,0-2.67,2.67,2.68,2.68,0,0,0,2.67-2.67" />
      <path d="M131.9,214.27a2.67,2.67,0,1,0-2.67,2.67,2.67,2.67,0,0,0,2.67-2.67" />
      <path d="M140.41,214.27a2.68,2.68,0,1,0-2.67,2.67,2.68,2.68,0,0,0,2.67-2.67" />
      <path d="M106.39,222.77a2.67,2.67,0,1,0-2.67,2.68,2.67,2.67,0,0,0,2.67-2.68" />
      <path d="M114.9,222.77a2.68,2.68,0,1,0-2.68,2.68,2.68,2.68,0,0,0,2.68-2.68" />
      <path d="M123.4,222.77a2.68,2.68,0,1,0-2.67,2.68,2.68,2.68,0,0,0,2.67-2.68" />
      <path d="M131.9,222.77a2.67,2.67,0,1,0-2.67,2.68,2.67,2.67,0,0,0,2.67-2.68" />
    </g>
  </g>
</svg>
